<svg width="178" height="47" viewBox="0 0 178 47" fill="none" xmlns="http://www.w3.org/2000/svg">
<path d="M11.2165 42.5458L7.85613 34.1396L5.45621 33.37L0.18765 14.9531C-0.0479882 14.2602 -0.0543876 13.5418 0.127463 12.8925C0.38103 11.9743 1.00726 11.1905 1.8845 10.8038C1.96518 10.7692 2.04586 10.7372 2.1291 10.709C5.78533 9.46424 12.2103 7.88009 18.0308 9.5001C19.6265 9.94448 21.1761 10.6283 22.6104 11.6285C24.8733 13.2024 26.5445 14.3332 27.9635 17.7551L28.5129 16.5359C28.5129 16.5359 22.9165 12.6108 25.6109 6.50852C28.3067 0.406269 40.9197 4.61573 36.7461 13.7301L37.9653 14.9492C37.9653 14.9492 39.2664 4.96407 49.4309 8.72915C52.7247 9.94832 51.1098 11.1316 52.7247 9.94833C57.9702 6.1064 58.1303 11.7476 60.2869 10.6796C60.2869 10.6796 59.3661 11.252 59.79 5.42254C60.2651 -1.12538 68.2384 -1.43017 71.3452 2.83052C71.8306 3.49517 72.1968 4.27124 72.3979 5.15104C72.4888 5.55188 72.5464 5.97321 72.5644 6.41631C72.6233 7.80965 72.6182 8.91357 72.5733 9.78825C72.444 12.2202 71.9919 12.8746 71.6654 13.0206C71.463 13.1102 71.3081 13.0052 71.3081 13.0052C71.3081 13.0052 71.3401 13.0859 71.3951 13.2409C71.5309 13.6135 71.805 14.4139 72.1161 15.5511C72.8026 18.0497 71.8126 21.9928 70.3489 26.0178" fill="#1B1464"/>
<path d="M165.396 14.8557C165.481 14.9338 166.127 16.2183 166.211 16.3003C166.211 16.3003 174.916 15.6843 177.106 22.724C180.047 32.1802 174.794 31.1121 174.747 31.0981C174.747 31.0981 179.723 44.0786 167.775 43.8558C167.775 43.8558 159.765 46.0022 158.179 38.5949C158.179 38.5949 148.651 43.4063 145.912 34.9528C145.912 34.9528 139.933 39.987 135.641 32.517C135.641 32.517 127.435 36.6945 122.126 31.6603C122.126 31.6603 113.985 34.9784 107.612 29.7086C107.612 29.7086 102.732 38.0942 91.4807 31.0507C91.4807 31.0507 86.5618 34.68 79.8628 35.0757C76.2757 35.287 73.238 34.9976 72.5426 31.2453L68.232 7.99017C67.826 5.799 68.7276 2.59739 70.5615 1.48451C71.9241 0.658495 72.622 0.654654 74.4649 0.404929C77.8867 -0.0599436 78.7384 3.0264 79.4043 6.62501L79.9537 9.55255C79.9537 9.55255 85.4425 6.53408 88.7363 10.102C88.7363 10.102 94.7438 5.86302 98.2195 8.4243C98.2195 8.4243 97.9147 8.30265 100.476 7.38699C103.037 6.47261 106.788 6.86833 107.215 10.3747C107.215 10.3747 108.221 7.72124 112.063 9.00316C112.063 9.00316 111.88 0.953043 116.638 0.860837C121.395 0.768631 123.59 8.91095 123.133 13.0282C123.133 13.0282 125.787 10.4669 128.348 11.1073C128.348 11.1073 129.628 1.2271 135.484 1.86742C141.339 2.50774 139.142 13.4854 139.142 13.4854C139.142 13.4854 138.685 5.16123 143.9 4.88589C149.115 4.61184 147.285 14.3089 147.285 14.3089C148.025 13.2997 149.02 12.4967 150.176 12.0178C155.482 9.8202 160.976 10.7781 165.398 14.8582L165.396 14.8557Z" fill="#1B1464"/>
<path d="M73.1074 26.8745C72.9934 27.3971 73.0882 27.8888 73.1945 28.3767C73.3456 29.0644 73.5402 29.7394 73.7989 30.3886C73.863 30.5513 73.936 30.7101 73.9936 30.874C74.009 30.9188 73.9897 30.9816 73.9782 31.0341C73.968 31.084 73.813 31.116 73.7503 31.0827C73.6773 31.043 73.5953 31.0123 73.5377 30.9547C73.4391 30.8548 73.3494 30.7408 73.2675 30.6243C72.6745 29.779 72.0432 28.9658 71.5194 28.0656C71.317 27.7185 71.0853 27.3919 70.8983 27.1038C67.3496 24.2902 65.0445 26.3738 63.3092 25.6887C62.3564 25.4582 61.4305 24.5476 61.4676 23.2042C61.4804 22.7278 61.5445 22.2681 61.7238 21.8211C62.2117 20.6109 62.8494 19.5045 63.7241 18.5657C64.431 17.8076 65.1495 17.061 65.9268 16.3835C66.3802 15.9891 66.8335 15.5959 67.2882 15.2041C67.5353 14.9902 67.5494 14.93 67.3714 14.6137C66.9603 13.885 66.5428 13.1602 66.1305 12.4315C65.7335 11.7284 65.3326 11.0266 64.9471 10.3159C64.6718 9.80744 64.4451 9.27085 64.2812 8.70737C64.1659 8.31166 64.0136 7.93643 63.8253 7.57657C63.4731 6.90679 63.2324 6.18835 63.0326 5.45326C62.7419 4.38905 62.7329 3.30051 62.9058 2.21068C63.0108 1.55371 63.3054 0.985106 63.7651 0.518952C64.0456 0.23465 64.3721 0.120675 64.7499 0.137323C65.7719 0.184707 66.6914 0.552248 67.5263 1.15031C68.0501 1.52554 68.5573 1.9251 69.0849 2.29777C69.5165 2.60256 69.8699 3.02773 70.1427 3.51309C70.3489 3.87808 70.4001 3.98053 70.0979 4.36856C69.7278 4.84496 69.5997 5.41997 69.6048 6.02699C69.6074 6.23318 69.6253 6.43936 69.6304 6.64554C69.6343 6.79026 69.4998 6.92087 69.3602 6.91831C69.1873 6.91447 69.0324 6.86837 68.9299 6.70701C68.8364 6.5623 68.7417 6.41759 68.6546 6.26904C68.2333 5.54675 67.8132 4.82319 67.397 4.09835C67.1947 3.74361 66.9552 3.42857 66.6376 3.18268C66.1253 2.78569 65.3121 3.1481 65.2109 3.82044C65.1712 4.08682 65.1789 4.35063 65.2378 4.6106C65.4658 5.61206 65.7168 6.60456 66.1804 7.51766C66.3635 7.8788 66.5159 8.25787 66.6786 8.62926C66.9116 9.16072 67.1396 9.69475 67.3727 10.2275C67.8145 11.2405 68.3088 12.2214 68.8864 13.1538C69.1284 13.5444 69.3321 13.9631 69.5715 14.3563C69.7214 14.6022 69.7239 14.8455 69.6497 15.1144C69.5139 15.6011 69.3282 16.0608 69.0439 16.4719C68.7122 16.9496 68.3895 17.4337 68.0437 17.8973C67.5046 18.6195 67.0499 19.3994 66.5966 20.1819C66.3008 20.6929 66.133 21.2577 65.9845 21.8288C65.955 21.9402 65.9524 22.0657 65.9691 22.1784C65.9806 22.2553 66.0318 22.368 66.0895 22.3872C68.6226 22.5152 70.8752 22.2348 71.3516 22.8111C71.9881 23.5795 72.6323 25.8718 73.1048 26.872L73.1074 26.8745Z" fill="#1B1464"/>
<path d="M5.15137 32.3915L6.75362 37.372C7.1546 38.5443 9.95522 45.9702 10.9721 45.9177C14.919 45.7128 26.8558 42.378 29.1815 38.0917C29.1815 38.0917 37.2009 42.9709 40.0375 37.7562C40.0375 37.7562 50.9537 42.3601 58.0894 33.8528C58.0894 33.8528 58.4416 34.0986 59.0576 34.3778C63.5398 36.4051 68.7751 33.9155 70.1146 29.1823L71.1404 25.5593L10.4278 38.8242L9.01475 33.3931L5.15137 32.3915Z" fill="#1B1464"/>
<path d="M10.9156 37.2515L4.53034 16.8918C3.90027 14.8812 5.12584 12.7554 7.18512 12.3084C12.8174 11.0867 23.1291 10.6577 26.1489 22.6867C29.7039 36.8468 21.8805 39.7282 15.3505 40.2443C13.3552 40.4019 11.515 39.1622 10.9156 37.2528V37.2515Z" fill="#D06822"/>
<path d="M6.27582 18.1867C6.27582 18.1867 4.33693 13.132 11.885 13.3395C19.4318 13.5469 24.0716 19.6402 25.2485 27.6033C26.4254 35.5663 16.7297 39.8551 13.8931 37.2977C9.66952 33.4891 6.2771 18.1867 6.2771 18.1867H6.27582Z" fill="#EC8C49"/>
<path d="M13.8469 17.217C13.8469 17.217 11.447 16.6625 13.7547 26.818C16.0624 36.9735 21.0941 34.3418 18.9708 25.7564C16.8475 17.1709 13.8469 17.217 13.8469 17.217Z" fill="#D06822"/>
<path d="M14.7473 26.8641C14.7473 26.8641 12.5087 19.097 14.1006 18.7397C15.6924 18.3824 19.6931 27.9386 17.9925 31.7575C17.8298 32.1212 17.3713 32.2377 17.0525 31.9995C16.4813 31.5718 15.6322 30.327 14.7473 26.8641Z" fill="#1B1464"/>
<path d="M11.1232 13.3394C11.1232 13.3394 5.39869 12.7848 6.13762 17.3093C6.87655 21.8326 8.35313 25.8948 8.35313 25.8948C8.35313 25.8948 9.36868 27.4648 8.72195 24.2325C8.07523 21.0014 8.12005 18.2801 9.78232 16.71C11.4446 15.1399 14.4464 14.8159 14.4464 13.9848C14.4464 13.1537 11.1232 13.3381 11.1232 13.3381V13.3394Z" fill="white"/>
<path d="M16.7862 14.3241C16.7862 14.3241 15.8013 13.5237 15.5247 14.1397C15.2481 14.7557 18.2947 15.3397 16.7862 14.3241Z" fill="white"/>
<path d="M18.1703 15.6779C18.374 15.6779 18.5392 15.5196 18.5392 15.3244C18.5392 15.1292 18.374 14.9709 18.1703 14.9709C17.9666 14.9709 17.8015 15.1292 17.8015 15.3244C17.8015 15.5196 17.9666 15.6779 18.1703 15.6779Z" fill="white"/>
<path d="M9.81797 29.6811C10.1379 29.5832 10.2218 28.9309 10.0055 28.2241C9.78913 27.5174 9.35442 27.0238 9.03453 27.1218C8.71464 27.2197 8.6307 27.872 8.84704 28.5787C9.06338 29.2855 9.49808 29.779 9.81797 29.6811Z" fill="white"/>
<path d="M10.2689 31.2863C10.5489 31.2863 10.776 31.073 10.776 30.8099C10.776 30.5468 10.5489 30.3335 10.2689 30.3335C9.98877 30.3335 9.76172 30.5468 9.76172 30.8099C9.76172 31.073 9.98877 31.2863 10.2689 31.2863Z" fill="white"/>
<path d="M40.1257 19.3584C40.1257 19.3584 38.3763 13.8517 43.8652 12.1215C48.9199 10.5284 49.9751 12.8502 51.1904 13.8581C51.7296 14.305 52.562 14.2256 53.0064 13.6954C53.4508 13.1652 54.1462 12.4634 54.8057 12.3815C56.1901 12.2086 57.5066 13.073 57.714 18.2571C57.8434 21.5009 57.4182 24.4464 57.2364 25.6989C57.1032 26.6145 56.8765 29.715 54.5124 31.3875C48.0887 35.935 43.1467 32.7398 42.6409 32.3006C40.7494 30.6601 40.8313 28.2102 41.0977 27.5238C41.5434 26.3738 42.4129 23.5704 45.8758 24.6718C49.3374 25.7731 50.8319 22.633 48.0913 23.5704C45.3507 24.5066 41.3692 23.9687 40.1283 19.3584H40.1257Z" fill="#64D024"/>
<path d="M46.7621 22.647C45.6774 22.7047 44.5889 22.5049 43.6297 22.0298C42.4246 21.4343 41.2246 20.3445 41.4654 18.3864C41.9264 14.6277 45.032 12.0625 49.8203 14.109C53.0053 15.4703 52.5634 14.9594 53.1436 14.433C53.9312 13.7197 55.5051 14.3075 55.9033 15.2629C56.6897 17.1467 56.0967 22.9006 55.7317 25.4504C55.7317 25.4504 55.3655 29.218 51.5031 30.587C49.924 31.1467 43.2199 31.9074 42.3426 28.4945C41.4654 25.0815 44.9744 25.6002 44.9744 25.6002C44.9744 25.6002 50.2365 25.9024 50.5131 24.3477C50.768 22.9185 49.9701 22.4742 46.7621 22.6458V22.647Z" fill="#97EB49"/>
<path d="M48.6214 15.3243C48.6214 15.3243 44.2262 14.3472 44.2813 17.8446C44.3363 21.342 51.2825 21.8556 51.2044 18.6155C51.1494 16.3526 48.6227 15.3243 48.6227 15.3243H48.6214Z" fill="#64D024"/>
<path d="M48.7584 16.6793C48.7584 16.6793 47.4663 15.8367 46.3355 16.874C45.2687 17.8524 46.3803 20.0244 48.7776 19.466C49.0978 19.3917 49.3629 19.1779 49.4833 18.891C49.692 18.3915 49.797 17.5399 48.7584 16.6793Z" fill="#1B1464"/>
<path d="M47.9042 21.0642C48.2232 21.0642 48.4818 20.9289 48.4818 20.7619C48.4818 20.595 48.2232 20.4597 47.9042 20.4597C47.5852 20.4597 47.3267 20.595 47.3267 20.7619C47.3267 20.9289 47.5852 21.0642 47.9042 21.0642Z" fill="white"/>
<path d="M49.1272 20.4161C49.1272 20.4161 50.8356 20.2432 50.8356 18.645C50.8356 17.0468 52.6823 18.4721 50.8356 20.2432C48.9889 22.0144 48.4818 20.5455 49.1272 20.4161Z" fill="white"/>
<path d="M42.2041 16.3372C42.7573 15.3818 43.5821 14.5827 44.5989 14.0602C45.2238 13.7401 45.918 13.5198 46.5416 13.6325C48.2039 13.9347 48.711 14.1076 48.3883 13.4596C48.0656 12.8116 43.0339 12.1201 41.9262 15.62C41.2167 17.8612 41.7379 17.1427 42.2041 16.3372Z" fill="white"/>
<path d="M52.8502 15.5907C52.6671 15.0925 52.7708 14.5303 53.1512 14.1423C53.3689 13.9207 53.689 13.735 54.1629 13.6774C55.5844 13.5045 53.1409 16.3847 52.9194 15.7802L52.8502 15.592V15.5907Z" fill="white"/>
<path d="M29.9588 31.6193C29.9549 31.6078 29.9524 31.5963 29.9498 31.5847C29.832 30.9982 26.8417 15.9045 32.5149 15.8841C37.5184 15.8661 38.0627 25.2007 38.1177 27.7249C38.1241 28.0348 38.2061 31.6872 37.932 32.9691C37.1048 36.8315 31.0102 37.1773 29.9575 31.6193H29.9588Z" fill="#E8D935"/>
<path d="M33.4741 12.2151C33.4741 12.2151 32.0897 14.9851 28.9739 12.5609C25.8581 10.1379 28.8356 6.26011 30.9128 6.53673C32.99 6.81335 35.2746 9.37592 33.4753 12.2151H33.4741Z" fill="#E8D935"/>
<path d="M31.5569 32.2725C30.7975 29.3296 28.1747 18.0241 32.4469 17.061C32.4469 17.061 35.1837 17.0649 36.2261 20.0091C37.0201 22.2502 36.974 27.7774 36.9087 30.2478C36.8792 31.3863 36.4681 32.4902 35.7074 33.3367C34.9467 34.1832 33.9171 34.7608 32.657 33.8835C32.1063 33.5006 31.7259 32.9205 31.5582 32.2712L31.5569 32.2725Z" fill="#FFF58B"/>
<path d="M30.9807 12.4226C31.8216 12.4226 32.5034 11.6474 32.5034 10.6911C32.5034 9.73491 31.8216 8.95972 30.9807 8.95972C30.1397 8.95972 29.458 9.73491 29.458 10.6911C29.458 11.6474 30.1397 12.4226 30.9807 12.4226Z" fill="#FFF58B"/>
<path d="M30.5311 24.563C30.5311 24.563 28.4078 18.1931 32.447 17.0623C32.447 17.0623 34.0401 16.9931 32.47 18.0087C30.9 19.0242 31.5928 27.9336 30.5311 24.563Z" fill="white"/>
<path d="M28.8573 10.2071C28.8573 10.2071 28.1645 8.26819 29.5501 8.03767C30.9358 7.80715 30.3351 9.00712 29.7806 9.83825C29.2261 10.6694 29.8267 11.5005 28.8573 10.2071Z" fill="white"/>
<path d="M59.5043 25.7309C59.3007 23.0697 58.4286 15.4537 63.9021 12.0203C65.7897 10.8357 68.5393 11.5132 69.3012 13.3688C69.5254 13.9131 69.6778 14.5867 69.7162 15.4191C69.8878 19.1637 69.7098 25.2237 66.6106 28.5572C65.0418 30.2451 59.9999 32.2314 59.5043 25.7309Z" fill="#24D07B"/>
<path d="M68.4842 5.28031C69.072 5.14328 68.4202 4.37106 67.0153 4.0112C63.2067 3.03663 62.7918 5.215 62.7918 5.215C62.446 8.88403 68.1244 9.85989 68.1244 9.85989C68.1244 9.85989 65.7116 5.92703 68.4855 5.28031H68.4842Z" fill="#24D07B"/>
<path d="M61.2908 24.8959C61.2908 24.8959 60.0908 11.4824 66.3685 12.4762C72.6462 13.47 66.8295 26.375 65.353 26.9602C65.353 26.9602 61.7479 29.5062 61.2908 24.8971V24.8959Z" fill="#49EB9A"/>
<path d="M65.9997 8.84559C65.9997 8.84559 63.8022 8.44219 64.3836 6.13191C64.3836 6.13191 65.3069 4.33646 67.2458 5.44421" fill="#24D07B"/>
<path d="M66.6453 6.61479C66.6453 7.61497 67.6877 8.64461 66.4762 8.64461C65.2647 8.64461 64.2825 7.83396 64.2825 6.83378C64.2825 5.8336 65.2647 5.02295 66.4762 5.02295C67.6877 5.02295 66.6453 5.6146 66.6453 6.61479Z" fill="#49EB9A"/>
<path d="M65.6924 12.6094C65.4234 12.4429 65.0687 12.3968 64.7562 12.4993C63.8495 12.7977 62.1348 13.9605 61.2447 18.4363C60.0704 24.3388 63.2784 13.9695 65.6616 12.936C65.814 12.8694 65.8307 12.6952 65.6924 12.6094Z" fill="white"/>
<path d="M61.2448 22.0286C61.4231 22.0286 61.5676 21.7379 61.5676 21.3793C61.5676 21.0207 61.4231 20.73 61.2448 20.73C61.0666 20.73 60.9221 21.0207 60.9221 21.3793C60.9221 21.7379 61.0666 22.0286 61.2448 22.0286Z" fill="white"/>
<path d="M61.3368 23.5193C61.5405 23.5193 61.7057 23.357 61.7057 23.1569C61.7057 22.9567 61.5405 22.7944 61.3368 22.7944C61.1331 22.7944 60.968 22.9567 60.968 23.1569C60.968 23.357 61.1331 23.5193 61.3368 23.5193Z" fill="white"/>
<path d="M66.9847 13.1628C67.2909 13.1628 67.5392 13.0171 67.5392 12.8375C67.5392 12.6578 67.2909 12.5122 66.9847 12.5122C66.6784 12.5122 66.4302 12.6578 66.4302 12.8375C66.4302 13.0171 66.6784 13.1628 66.9847 13.1628Z" fill="white"/>
<path d="M68.0538 13.8517C68.2193 13.8517 68.3535 13.7319 68.3535 13.5841C68.3535 13.4362 68.2193 13.3164 68.0538 13.3164C67.8883 13.3164 67.7542 13.4362 67.7542 13.5841C67.7542 13.7319 67.8883 13.8517 68.0538 13.8517Z" fill="white"/>
<path d="M65.2774 4.63493C65.7448 4.60163 65.9907 5.08699 65.6373 5.34312C65.0661 5.75805 64.486 6.33818 64.6601 6.89654C64.9829 7.92874 63.5985 6.01802 63.9212 5.67353C64.1697 5.40844 64.1722 4.71433 65.2761 4.63493H65.2774Z" fill="white"/>
<path d="M94.1392 10.3733C94.1392 10.3733 90.6546 10.0557 91.7957 17.1517C92.9367 24.2477 91.6036 29.9825 98.8827 29.9043C105.039 29.839 105.682 24.2375 104.115 19.5824C102.551 14.9259 107.243 12.2865 105.434 10.9918C103.626 9.69709 101.334 9.39614 100.691 12.7168C99.4449 19.1623 100.263 21.6941 98.7982 21.7723C96.0679 21.917 97.6072 18.8229 97.4228 14.1243C97.255 9.83284 94.1367 10.3733 94.1367 10.3733H94.1392Z" fill="#2398D4"/>
<path d="M98.8136 29.0426C98.8136 29.0426 96.0909 29.1412 94.6412 27.0064C93.1915 24.8715 93.084 18.2237 93.084 18.2237C93.084 18.2237 92.313 11.9422 94.2455 11.2096C96.178 10.4771 96.9963 15.2245 96.4495 18.5029C95.9027 21.7813 96.7376 23.9635 99.0441 23.8483C101.351 23.733 102.269 21.0706 101.648 18.4081C101.37 17.2184 101.171 15.8174 101.198 14.547C101.233 12.9744 101.614 11.6041 102.622 11.0854C102.622 11.0854 104.534 10.4899 104.862 11.7065C105.19 12.9244 104.559 13.388 104.112 14.4868C103.663 15.5856 103.584 20.7094 103.835 21.8223C103.835 21.8223 105.738 24.9612 103.115 26.8488C100.492 28.7378 98.8123 29.0413 98.8123 29.0413L98.8136 29.0426Z" fill="#4BC0ED"/>
<path d="M93.1544 12.8653C93.1544 12.8653 93.6833 11.0404 93.9664 11.2146C95.0357 11.8728 93.8665 11.732 93.9766 17.5768C94.129 25.682 90.8608 18.2325 93.1544 12.8653Z" fill="white"/>
<path d="M94.0685 22.7584C94.1453 22.2543 93.9831 21.8114 93.7062 21.7693C93.4293 21.7271 93.1426 22.1016 93.0658 22.6057C92.989 23.1099 93.1512 23.5527 93.4281 23.5949C93.705 23.6371 93.9917 23.2626 94.0685 22.7584Z" fill="white"/>
<path d="M94.3563 25.1602C94.4005 24.8701 94.2629 24.6084 94.0489 24.5758C93.835 24.5432 93.6257 24.7521 93.5815 25.0422C93.5373 25.3324 93.6749 25.594 93.8889 25.6266C94.1028 25.6592 94.3121 25.4504 94.3563 25.1602Z" fill="white"/>
<path d="M98.1783 23.7164C98.1783 23.7164 98.1027 22.6778 99.1183 23.0659C100.133 23.4539 100.791 21.5931 100.791 21.5931C100.791 21.5931 100.969 20.7325 101.454 21.2269C101.94 21.7212 101.581 23.7677 100.051 24.002C98.5202 24.2364 98.1796 23.7164 98.1796 23.7164H98.1783Z" fill="white"/>
<path d="M102.199 20.2619C102.245 19.9592 102.089 19.6842 101.85 19.6478C101.611 19.6114 101.379 19.8273 101.333 20.13C101.287 20.4328 101.444 20.7077 101.683 20.7442C101.922 20.7806 102.153 20.5647 102.199 20.2619Z" fill="white"/>
<path d="M97.7227 23.291C97.7552 23.077 97.598 22.8756 97.3715 22.8411C97.1449 22.8066 96.9349 22.9521 96.9023 23.1661C96.8697 23.38 97.0269 23.5814 97.2535 23.6159C97.48 23.6504 97.6901 23.505 97.7227 23.291Z" fill="white"/>
<path d="M102.012 18.7394C102.035 18.5884 101.962 18.452 101.849 18.4347C101.735 18.4175 101.625 18.5259 101.602 18.677C101.579 18.828 101.652 18.9644 101.765 18.9817C101.879 18.9989 101.989 18.8905 102.012 18.7394Z" fill="white"/>
<path d="M116.056 27.1601C116.056 27.1601 109.465 31.2889 107.157 22.0567C104.849 12.8246 112.379 10.522 114.8 12.3418C114.8 12.3418 113.066 3.82297 116.805 3.73076C120.545 3.63855 121.183 11.7399 120.355 17.0136C119.529 22.2872 124.799 28.2666 119.579 28.8774C119.579 28.8774 117.616 29.7252 116.056 27.1601Z" fill="#314FDB"/>
<path d="M115.452 13.1308C115.452 13.1308 108.897 9.88438 107.112 17.5772C105.327 25.2713 112.837 29.9328 116.221 25.6862C116.221 25.6862 116.899 29.4103 120.314 27.6866C120.314 27.6866 121.76 27.4407 120.775 25.101C119.791 22.7625 119.036 17.4069 119.622 14.5766C119.622 14.5766 120.622 4.23675 116.928 4.94494C114.841 5.3445 115.452 13.1308 115.452 13.1308Z" fill="#6B86FD"/>
<path d="M112.999 15.9507C112.999 15.9507 116.448 15.4999 115.417 20.3138C114.386 25.1277 111.731 22.911 111.453 22.149C111.319 21.7802 109.55 16.2964 112.999 15.9507Z" fill="#314FDB"/>
<path d="M112.396 17.7322C112.121 18.1945 111.93 19.0435 112.176 20.5982C112.223 20.8966 112.336 21.1822 112.518 21.4217C112.722 21.6906 113.035 21.9416 113.477 21.8674C114.359 21.7201 114.426 19.3957 114.426 19.3957C114.426 19.3957 114.563 18.1829 113.86 17.5324C113.416 17.1213 112.707 17.2122 112.398 17.7322H112.396Z" fill="#1B1464"/>
<path d="M115.707 13.9145C115.816 13.8402 115.792 13.6712 115.672 13.6187C114.958 13.3126 111.851 12.1318 110.021 13.8389C107.943 15.7778 111.313 13.424 113.067 13.8389C114.431 14.1617 115.387 14.1309 115.707 13.9132V13.9145Z" fill="white"/>
<path d="M108.594 15.3218L108.678 15.2027C108.678 15.2027 109.383 14.9415 108.353 16.8509C107.665 18.1264 107.84 17.2492 108.032 16.5256C108.146 16.0941 108.338 15.6868 108.595 15.3231L108.594 15.3218Z" fill="white"/>
<path d="M107.77 19.5411C107.939 19.5349 108.066 19.2561 108.054 18.9183C108.042 18.5804 107.895 18.3115 107.726 18.3176C107.557 18.3237 107.43 18.6025 107.443 18.9404C107.455 19.2782 107.602 19.5472 107.77 19.5411Z" fill="white"/>
<path d="M115.629 20.5755C115.798 20.5694 115.925 20.2905 115.912 19.9527C115.9 19.6148 115.753 19.3459 115.584 19.352C115.416 19.3581 115.288 19.6369 115.301 19.9748C115.313 20.3126 115.46 20.5816 115.629 20.5755Z" fill="white"/>
<path d="M115.6 18.9203C115.769 18.9142 115.901 18.7723 115.895 18.6033C115.888 18.4344 115.747 18.3024 115.578 18.3085C115.409 18.3146 115.277 18.4565 115.283 18.6255C115.289 18.7944 115.431 18.9264 115.6 18.9203Z" fill="white"/>
<path d="M112.374 23.071C111.09 22.5895 113.171 24.4579 114.279 24.3183C115.386 24.18 116.189 19.5044 115.052 21.7775C115.052 21.7775 114.591 23.9009 112.374 23.0697V23.071Z" fill="white"/>
<path d="M116.436 4.97556C116.436 4.97556 115.421 5.62229 115.375 8.85335C115.329 12.0844 115.882 6.40732 116.621 6.40732C117.36 6.40732 117.775 3.96129 116.436 4.97684V4.97556Z" fill="white"/>
<path d="M126.557 29.1105C126.557 29.1105 123.413 28.022 123.008 20.0103C122.947 18.8295 123.16 17.6449 123.657 16.5718C124.575 14.588 126.693 12.3841 131.524 14.0924C131.524 14.0924 130.449 5.12666 134.742 4.94225C139.035 4.75784 137.096 18.6515 137.096 18.6515C137.096 18.6515 135.988 26.1292 136.727 28.346C137.466 30.5615 134.788 32.9153 132.434 29.7304L131.923 28.5432C131.923 28.5432 129.59 30.1978 126.557 29.1105Z" fill="#411FAF"/>
<path d="M131.741 14.4972C131.741 14.4972 122.509 11.4505 122.602 20.7288C122.694 30.007 130.68 29.0376 132.342 27.3766C132.342 27.3766 132.757 31.2543 135.204 30.3771C137.65 29.4999 134.337 25.275 135.759 19.6914C136.616 16.3272 137.34 10.3863 136.452 7.15908C135.998 5.51473 135.088 5.89765 134.374 5.91301C132.205 5.95912 131.743 14.4984 131.743 14.4984L131.741 14.4972Z" fill="#816EFD"/>
<path d="M128.85 25.1572C128.85 25.1572 126.662 25.9269 126.419 22.4423C126.176 18.9577 127.502 17.2698 129.203 17.5118C130.905 17.7551 132.293 25.2366 128.85 25.156V25.1572Z" fill="#411FAF"/>
<path d="M127.553 21.3626C127.553 21.3626 127.988 18.4786 128.916 18.5772C129.776 18.6681 130.598 21.9363 129.347 23.2951C129.119 23.5422 128.769 23.6383 128.454 23.5192C128.03 23.3591 127.622 23.0223 127.51 21.8543" fill="#1B1464"/>
<path d="M124.503 17.1263L124.588 17.0072C124.588 17.0072 125.292 16.7459 124.263 18.6554C123.575 19.9309 123.749 19.0536 123.941 18.3301C124.055 17.8985 124.247 17.4913 124.505 17.1276L124.503 17.1263Z" fill="white"/>
<path d="M131.658 15.5422C131.767 15.4679 131.744 15.2989 131.624 15.2464C130.909 14.9403 127.802 13.7595 125.972 15.4666C123.895 17.4055 127.264 15.0517 129.019 15.4666C130.383 15.7893 131.338 15.7586 131.658 15.5409V15.5422Z" fill="white"/>
<path d="M123.79 21.1092C123.959 21.1031 124.086 20.8242 124.074 20.4864C124.062 20.1485 123.915 19.8796 123.746 19.8857C123.577 19.8918 123.45 20.1706 123.462 20.5085C123.474 20.8463 123.621 21.1153 123.79 21.1092Z" fill="white"/>
<path d="M131.11 22.5393C131.279 22.5332 131.406 22.2544 131.393 21.9165C131.381 21.5787 131.234 21.3097 131.065 21.3158C130.896 21.322 130.769 21.6008 130.782 21.9387C130.794 22.2765 130.941 22.5454 131.11 22.5393Z" fill="white"/>
<path d="M131.088 20.6993C131.257 20.6932 131.389 20.5513 131.383 20.3824C131.377 20.2135 131.235 20.0815 131.066 20.0876C130.897 20.0937 130.765 20.2356 130.771 20.4045C130.777 20.5734 130.919 20.7054 131.088 20.6993Z" fill="white"/>
<path d="M127.864 25.0226C126.579 24.5411 128.855 26.2252 129.963 26.0869C131.07 25.9486 131.679 21.4573 130.542 23.7305C130.542 23.7305 130.08 25.8538 127.864 25.0226Z" fill="white"/>
<path d="M133.542 6.05002C133.542 6.05002 132.527 6.69674 132.48 9.9278C132.434 13.1589 132.988 7.48178 133.727 7.48178C134.465 7.48178 134.88 5.03576 133.542 6.05131V6.05002Z" fill="white"/>
<path d="M139.511 22.3411C139.354 19.3572 141.45 12.37 144.358 14.6547C146.955 16.696 145.52 24.3491 145.52 25.3647C145.52 25.3647 145.189 30.9201 142.281 30.8919C138.749 30.8573 139.511 22.3411 139.511 22.3411Z" fill="#A520D2"/>
<path d="M146.003 9.66408C146.365 11.2252 145.219 12.7351 143.619 12.8529C143.407 12.8682 143.206 12.8785 143.043 12.8785C142.35 12.8785 140.892 11.6862 141.321 9.46558C141.75 7.24623 144.52 6.73781 145.397 8.16957C145.666 8.60755 145.879 9.12878 146.003 9.6628V9.66408Z" fill="#A520D2"/>
<path d="M143.409 27.5983C143.171 28.6126 141.738 28.6459 141.454 27.6431C141.45 27.6303 141.446 27.6162 141.444 27.6034C141.091 26.26 140.24 16.3069 143.375 16.0687C145.939 15.874 144.147 24.462 143.409 27.5983Z" fill="#CB6DFF"/>
<path d="M143.631 11.886C144.453 11.886 145.119 11.0953 145.119 10.12C145.119 9.14467 144.453 8.354 143.631 8.354C142.809 8.354 142.143 9.14467 142.143 10.12C142.143 11.0953 142.809 11.886 143.631 11.886Z" fill="#CB6DFF"/>
<path d="M143.845 15.9533C143.271 15.7881 142.44 15.879 142.119 16.3823C141.715 17.0136 141.249 18.1764 141.058 20.2869C140.689 24.3491 142.186 19.703 142.186 19.703C142.186 19.703 142.221 17.3658 143.412 17.1071C143.949 16.9906 144.073 16.0198 143.845 15.9533Z" fill="white"/>
<path d="M141.219 24.1187C141.385 24.1187 141.519 23.726 141.519 23.2415C141.519 22.757 141.385 22.3643 141.219 22.3643C141.054 22.3643 140.92 22.757 140.92 23.2415C140.92 23.726 141.054 24.1187 141.219 24.1187Z" fill="white"/>
<path d="M141.285 26.0549C141.45 26.0549 141.584 25.8588 141.584 25.6169C141.584 25.375 141.45 25.179 141.285 25.179C141.119 25.179 140.985 25.375 140.985 25.6169C140.985 25.8588 141.119 26.0549 141.285 26.0549Z" fill="white"/>
<path d="M143.631 8.35534C143.631 8.35534 142.396 8.07872 142.143 10.1213C141.889 12.164 143.304 9.31966 143.631 8.35534Z" fill="white"/>
<path d="M152.706 15.7343C154.967 15.0056 158.051 15.0773 160.086 16.3029C161.912 17.4017 163.635 19.4264 163.226 23.1313C162.634 28.4882 158.745 27.9836 156.635 27.2921C156.353 27.1999 156.199 27.6148 156.476 27.7224C157.037 27.9426 157.859 28.1488 159.066 28.282C160.97 28.492 161.983 30.6422 160.932 32.2418C160.62 32.7182 160.164 33.2291 159.521 33.7708C155.687 37.0019 151.6 34.3433 149.569 31.7461C147.716 29.377 147.533 26.5736 147.545 26.4046C147.545 26.3905 146.314 17.7936 152.707 15.7343H152.706Z" fill="#D022C8"/>
<path d="M153.666 27.1052C153.414 26.4828 154.02 25.8515 154.65 26.0846C156.136 26.634 158.457 27.0963 160.644 25.8899C163.322 24.4133 162.952 17.3045 157.736 16.6117C152.52 15.9188 148.78 19.4278 148.734 23.6744C148.672 29.4514 151.597 34.0604 156.582 33.876C158.685 33.7979 159.184 33.2062 159.721 32.4455C160.698 31.0586 160.195 29.1325 158.504 29.2695C157.968 29.313 157.34 29.4514 156.674 29.7677C155.318 30.4131 154.273 28.6036 153.666 27.1052Z" fill="#E55AD3"/>
<path d="M156.381 18.6324C157.412 18.7041 158.398 19.1203 159.125 19.8541C159.785 20.5201 160.313 21.5087 159.785 22.8009C158.73 25.3852 153.501 23.1262 153.404 21.008C153.302 18.8091 155.088 18.5415 156.382 18.6324H156.381Z" fill="#D022C8"/>
<path d="M156.059 22.6742C156.059 22.6742 156.86 23.4131 158.29 22.5513C159.721 21.6894 157.998 19.4278 156.382 19.7659C154.766 20.1039 153.827 21.4742 156.059 22.6742Z" fill="#1B1464"/>
<path d="M156.768 16.4272C156.768 16.4272 153.398 15.7805 150.167 19.1972C150.167 19.1972 149.013 20.9978 149.013 22.1517C149.013 23.3055 150.398 19.5199 152.983 18.3661C155.569 17.2122 158.522 16.7499 156.769 16.4272H156.768Z" fill="white"/>
<path d="M148.897 24.736C149.062 24.736 149.197 24.3639 149.197 23.9049C149.197 23.4458 149.062 23.0737 148.897 23.0737C148.731 23.0737 148.597 23.4458 148.597 23.9049C148.597 24.3639 148.731 24.736 148.897 24.736Z" fill="white"/>
<path d="M148.874 26.0743C149.039 26.0743 149.174 25.8988 149.174 25.6824C149.174 25.466 149.039 25.2905 148.874 25.2905C148.708 25.2905 148.574 25.466 148.574 25.6824C148.574 25.8988 148.708 26.0743 148.874 26.0743Z" fill="white"/>
<path d="M157.413 23.8126C157.413 23.8126 159.352 23.8126 159.491 22.6587C159.629 21.5049 161.291 22.336 159.859 23.6282C158.428 24.9204 157.043 23.9048 157.043 23.9048" fill="white"/>
<path d="M156.236 24.1355C156.402 24.1355 156.536 24.0117 156.536 23.8589C156.536 23.7061 156.402 23.5823 156.236 23.5823C156.071 23.5823 155.937 23.7061 155.937 23.8589C155.937 24.0117 156.071 24.1355 156.236 24.1355Z" fill="white"/>
<path d="M155.152 23.536C155.279 23.536 155.382 23.4431 155.382 23.3286C155.382 23.214 155.279 23.1211 155.152 23.1211C155.024 23.1211 154.921 23.214 154.921 23.3286C154.921 23.4431 155.024 23.536 155.152 23.536Z" fill="white"/>
<path d="M158.504 29.2694C158.504 29.2694 156.814 29.1209 156.167 29.7215C155.52 30.3221 154.967 28.2449 154.551 28.291C154.136 28.3371 154.827 30.691 156.766 30.4143C158.705 30.1377 159.41 29.2336 158.504 29.2694Z" fill="white"/>
<path d="M154.182 28.0592C154.36 28.0592 154.505 27.9044 154.505 27.7135C154.505 27.5225 154.36 27.3677 154.182 27.3677C154.004 27.3677 153.859 27.5225 153.859 27.7135C153.859 27.9044 154.004 28.0592 154.182 28.0592Z" fill="white"/>
<path d="M153.79 27.0897C153.905 27.0897 153.998 26.9968 153.998 26.8823C153.998 26.7677 153.905 26.6748 153.79 26.6748C153.676 26.6748 153.583 26.7677 153.583 26.8823C153.583 26.9968 153.676 27.0897 153.79 27.0897Z" fill="white"/>
<path d="M170.49 26.7144C170.97 27.3701 172.115 28.1782 172.89 28.4228C173.771 28.7007 174.457 28.3114 175.105 27.0845C176.397 24.6385 173.48 21.1308 170.138 21.0617C166.795 20.9912 165.119 21.4126 165.119 21.4126C165.119 21.4126 165.781 23.8253 164.326 27.3278C164.326 27.3278 169.181 32.7398 167.468 33.3545C166.287 33.7784 164.163 29.9928 164.163 29.9928C164.163 29.9928 163.472 33.6709 161.886 35.3178C161.886 35.3178 168.347 42.7544 171.887 37.9661C175.427 33.1778 167.857 26.7157 167.857 26.7157C167.857 26.7157 166.42 24.7268 168.78 25.193C170.255 25.4837 170.097 26.1804 170.489 26.7157L170.49 26.7144Z" fill="#CF2146"/>
<path d="M168.812 24.6448C169.307 24.6922 169.773 24.9061 170.145 25.2339C171.12 26.092 172.436 28.4714 174.091 27.0371C176.168 25.2365 171.645 20.6672 168.182 21.9132C164.721 23.1593 165.828 23.5294 165.828 23.5294L165.483 27.9655C165.483 27.9655 169.245 32.1148 168.044 33.4083C167.19 34.3278 165.705 33.051 164.919 32.2378C164.731 32.0431 164.402 32.1776 164.404 32.4478L164.443 36.3166C164.443 36.3166 164.812 39.7782 168.874 38.1172C171.927 36.8686 172.521 34.2855 172.151 33.27C171.808 32.3261 165.439 24.3196 168.811 24.6448H168.812Z" fill="#E55A7D"/>
<path d="M165.864 24.002C165.864 24.002 165.778 22.8558 167.521 22.4037C167.521 22.4037 170.103 22.4562 170.249 22.2782C170.395 22.1002 170.216 21.2972 169.117 21.474C168.019 21.6507 165.552 21.9017 165.863 24.002H165.864Z" fill="white"/>
<path d="M167.767 33.685C167.767 33.685 168.645 33.2239 168.322 32.3006C167.999 31.3773 169.245 32.7616 168.737 33.5006C168.228 34.2395 166.613 33.8694 166.89 33.7311C167.167 33.5928 167.767 33.685 167.767 33.685Z" fill="white"/>
<path d="M168.09 31.7461C168.192 31.7461 168.274 31.6119 168.274 31.4464C168.274 31.2809 168.192 31.1467 168.09 31.1467C167.988 31.1467 167.906 31.2809 167.906 31.4464C167.906 31.6119 167.988 31.7461 168.09 31.7461Z" fill="white"/>
<path d="M167.652 31.0531C167.741 31.0531 167.813 30.9602 167.813 30.8456C167.813 30.7311 167.741 30.6382 167.652 30.6382C167.563 30.6382 167.491 30.7311 167.491 30.8456C167.491 30.9602 167.563 31.0531 167.652 31.0531Z" fill="white"/>
<path d="M170.998 22.4677C171.202 22.4677 171.367 22.3232 171.367 22.145C171.367 21.9668 171.202 21.8223 170.998 21.8223C170.795 21.8223 170.629 21.9668 170.629 22.145C170.629 22.3232 170.795 22.4677 170.998 22.4677Z" fill="white"/>
<path d="M75.7007 29.1951L69.8149 9.18376C69.8149 9.18376 68.4305 5.99881 72.7232 4.12907C77.0159 2.25934 76.9468 14.3768 78.9548 12.7145C80.9629 11.0522 87.8181 9.87531 89.6174 17.1455C91.021 22.8136 89.3959 25.0804 86.7565 27.0654C85.4387 28.0566 83.8533 28.6188 82.2076 28.7174C81.3432 28.7686 80.4813 28.9274 80.2009 29.3321C79.5772 30.2324 76.9391 32.3928 75.7007 29.1938V29.1951Z" fill="#21CDBB"/>
<path d="M76.5663 27.2675C76.1155 26.2148 75.7249 25.1365 75.3983 24.039L70.9955 9.25401C70.9955 9.25401 69.7494 5.70023 73.2571 5.51454C76.7648 5.32884 76.5804 15.2551 78.0121 14.4701C79.4439 13.685 82.6749 10.5923 87.1982 15.0707C91.7214 19.5478 87.1943 27.6261 83.4587 27.6261C83.4587 27.6261 81.9821 27.119 81.1971 27.3034C80.4121 27.4878 79.0495 30.6574 77.2732 28.9195L76.5663 27.2688V27.2675Z" fill="#49FDE5"/>
<path d="M78.8857 21.0705C78.8857 21.0705 77.1312 16.6395 81.009 15.8084C84.8867 14.9772 84.7023 23.286 82.579 24.1172C80.4557 24.9483 78.8857 21.0705 78.8857 21.0705Z" fill="#21CDBB"/>
<path d="M82.105 22.9123C82.105 22.9123 80.4197 23.5513 79.6244 20.3151C78.8292 17.0789 80.8257 16.8663 81.5428 17.0597C82.26 17.2531 83.3831 18.494 83.1705 20.5866C82.958 22.6792 82.105 22.9123 82.105 22.9123Z" fill="#1B1464"/>
<path d="M82.5776 24.1175C82.5776 24.1175 83.6406 23.3094 83.93 20.8365C83.9415 20.7327 83.953 20.6264 83.962 20.5176C84.1925 17.7937 86.1314 24.672 82.5776 24.1188V24.1175Z" fill="white"/>
<path d="M84.1248 19.2702C84.3158 19.2702 84.4706 19.0742 84.4706 18.8323C84.4706 18.5904 84.3158 18.3943 84.1248 18.3943C83.9339 18.3943 83.7791 18.5904 83.7791 18.8323C83.7791 19.0742 83.9339 19.2702 84.1248 19.2702Z" fill="white"/>
<path d="M83.8237 17.9319C83.9765 17.9319 84.1003 17.8184 84.1003 17.6784C84.1003 17.5383 83.9765 17.4248 83.8237 17.4248C83.671 17.4248 83.5471 17.5383 83.5471 17.6784C83.5471 17.8184 83.671 17.9319 83.8237 17.9319Z" fill="white"/>
<path d="M81.4701 24.5322C81.7247 24.5322 81.9311 24.4084 81.9311 24.2556C81.9311 24.1028 81.7247 23.979 81.4701 23.979C81.2154 23.979 81.009 24.1028 81.009 24.2556C81.009 24.4084 81.2154 24.5322 81.4701 24.5322Z" fill="white"/>
<path d="M70.7971 6.81959C70.8292 6.63902 70.9316 6.47382 71.093 6.36241C71.2223 6.27276 71.3683 6.22538 71.4413 6.3957C71.9548 7.59054 71.3453 8.42552 72.5209 12.0049C73.6965 15.5843 72.1815 14.5022 71.7179 12.9872C71.2787 11.5528 70.5269 8.3141 70.7971 6.81959Z" fill="white"/>
<path d="M73.4209 16.9323C73.7004 16.8667 73.828 16.391 73.7057 15.8697C73.5834 15.3484 73.2577 14.979 72.9781 15.0446C72.6986 15.1102 72.571 15.5859 72.6933 16.1072C72.8156 16.6284 73.1413 16.9978 73.4209 16.9323Z" fill="white"/>
<path d="M73.831 19.0165C74.0729 19.0165 74.269 18.7217 74.269 18.3582C74.269 17.9947 74.0729 17.7 73.831 17.7C73.5892 17.7 73.3931 17.9947 73.3931 18.3582C73.3931 18.7217 73.5892 19.0165 73.831 19.0165Z" fill="white"/>
<path d="M19.7107 27.3193C19.9276 27.2787 20.0126 26.76 19.9004 26.1607C19.7883 25.5615 19.5215 25.1086 19.3046 25.1492C19.0877 25.1897 19.0028 25.7085 19.1149 26.3077C19.2271 26.907 19.4938 27.3599 19.7107 27.3193Z" fill="white"/>
<path d="M19.0591 24.7051C19.359 24.7051 19.6021 24.4763 19.6021 24.1941C19.6021 23.9119 19.359 23.6831 19.0591 23.6831C18.7592 23.6831 18.5161 23.9119 18.5161 24.1941C18.5161 24.4763 18.7592 24.7051 19.0591 24.7051Z" fill="white"/>
<path d="M16.5914 33.3276C16.6451 33.1074 16.859 32.9588 17.0857 32.9703C17.5979 32.9972 18.7646 32.6809 19.1462 29.4012C19.5714 25.7424 20.998 30.0441 19.6418 32.6348C19.2679 33.3481 18.5226 33.7925 17.7183 33.8079C17.1164 33.8194 16.4927 33.7374 16.5926 33.3276H16.5914Z" fill="white"/>
<path d="M172.15 26.959C172.15 26.959 174.074 27.7876 174.285 26.5569C174.495 25.3262 175.227 28.451 173.524 27.6941C171.819 26.936 172.189 27.6992 172.15 26.959Z" fill="white"/>
<path d="M101.349 13.8672C101.349 13.8672 101.494 11.7759 102.124 11.4263C102.754 11.0766 102.385 13.2307 102.17 13.9811C101.889 14.9608 101.066 15.9034 101.349 13.8672Z" fill="white"/>
<path d="M77.7766 14.547C77.7766 14.547 78.7947 12.772 82.0591 12.7183C85.3234 12.6658 85.4425 14.0424 82.9875 13.9899C80.5326 13.9374 79.3646 13.4866 77.7766 14.5457V14.547Z" fill="white"/>
<path d="M48.6304 42.8199H49.8713C50.1723 42.8199 50.4578 42.8532 50.7281 42.921C50.9983 42.9889 51.2352 43.0965 51.4363 43.2476C51.6373 43.3974 51.7974 43.5934 51.9165 43.8341C52.0343 44.0749 52.0945 44.3669 52.0945 44.7088C52.0945 45.0136 52.0369 45.2813 51.9216 45.5131C51.8064 45.7449 51.6514 45.9395 51.4567 46.097C51.2621 46.2545 51.038 46.3736 50.7831 46.4556C50.5283 46.5376 50.2619 46.5773 49.9827 46.5773H48.6304V42.8211V42.8199ZM49.4577 45.8114H49.888C50.0788 45.8114 50.2568 45.7922 50.4207 45.7525C50.5846 45.7141 50.7281 45.6488 50.8484 45.5592C50.9688 45.4695 51.0636 45.3504 51.1327 45.2044C51.2019 45.0571 51.2365 44.8779 51.2365 44.6666C51.2365 44.4821 51.2019 44.3221 51.1327 44.1863C51.0636 44.0506 50.9714 43.9379 50.8548 43.8495C50.7383 43.7611 50.6013 43.6945 50.4438 43.651C50.2862 43.6075 50.121 43.5844 49.9481 43.5844H49.4602V45.8127L49.4577 45.8114ZM54.2152 42.8199H55.0425V46.576H54.2152V42.8199ZM60.7657 46.3109C60.5211 46.4377 60.2676 46.5299 60.0025 46.5862C59.7374 46.6426 59.4672 46.6707 59.1905 46.6707C58.8973 46.6707 58.6271 46.6246 58.3786 46.5324C58.1314 46.4402 57.9176 46.3083 57.737 46.1367C57.5564 45.9651 57.4156 45.7577 57.3157 45.5131C57.2145 45.2697 57.1646 44.997 57.1646 44.696C57.1646 44.3951 57.2145 44.1236 57.3157 43.879C57.4169 43.6344 57.5564 43.4269 57.737 43.2553C57.9176 43.0837 58.1314 42.9518 58.3786 42.8596C58.6258 42.7674 58.8973 42.7213 59.1905 42.7213C59.4838 42.7213 59.7681 42.7571 60.0204 42.8301C60.2727 42.9031 60.4955 43.0273 60.6863 43.2041L60.1024 43.8405C59.9897 43.724 59.8616 43.6356 59.7207 43.5754C59.5786 43.5153 59.4018 43.4858 59.1905 43.4858C59.0138 43.4858 58.8537 43.5153 58.7103 43.5754C58.5669 43.6356 58.4439 43.7189 58.3415 43.8277C58.239 43.9353 58.1596 44.0634 58.1058 44.2119C58.0508 44.3605 58.0239 44.5218 58.0239 44.6947C58.0239 44.8676 58.0508 45.0328 58.1058 45.1801C58.1609 45.3274 58.239 45.4541 58.3415 45.5617C58.4439 45.6693 58.5669 45.7538 58.7103 45.814C58.8537 45.8742 59.0138 45.9036 59.1905 45.9036C59.3673 45.9036 59.5261 45.8832 59.658 45.8422C59.7886 45.8012 59.8936 45.7602 59.9704 45.718V45.1084H59.2968V44.3438H60.7657V46.307V46.3109ZM63.0517 42.8199H63.879V46.576H63.0517V42.8199ZM66.9295 43.5524H65.8576V42.8199H68.8286V43.5524H67.7567V46.576H66.9295V43.5524ZM72.0533 42.8199H72.7372L74.3713 46.576H73.4377L73.1137 45.7807H71.655L71.3425 46.576H70.4307L72.0533 42.8199ZM72.3722 43.9123L71.9163 45.0789H72.8345L72.3735 43.9123H72.3722ZM76.3511 42.8199H77.1784V45.8114H78.7114V46.5747H76.3511V42.8186V42.8199ZM86.3337 43.7957C86.2518 43.6971 86.1532 43.6203 86.0341 43.5678C85.915 43.5152 85.7779 43.4884 85.623 43.4884C85.468 43.4884 85.3233 43.5178 85.1901 43.578C85.0569 43.6382 84.943 43.7214 84.8456 43.8303C84.7483 43.9379 84.6727 44.0659 84.6177 44.2145C84.5626 44.363 84.5357 44.5244 84.5357 44.6973C84.5357 44.8702 84.5626 45.0354 84.6177 45.1826C84.6727 45.3299 84.747 45.4567 84.8431 45.5643C84.9391 45.6719 85.0505 45.7564 85.1799 45.8166C85.3092 45.8768 85.4475 45.9062 85.5961 45.9062C85.7664 45.9062 85.9162 45.8704 86.0469 45.7999C86.1775 45.7295 86.2851 45.6296 86.3709 45.5028L87.0611 46.0176C86.9023 46.2405 86.7 46.4044 86.4567 46.5107C86.2133 46.617 85.9611 46.6695 85.7037 46.6695C85.4104 46.6695 85.1402 46.6234 84.8917 46.5312C84.6446 46.439 84.4307 46.3071 84.2501 46.1354C84.0696 45.9638 83.9287 45.7564 83.8288 45.5118C83.7276 45.2685 83.6777 44.9957 83.6777 44.6947C83.6777 44.3938 83.7276 44.1223 83.8288 43.8777C83.93 43.6331 84.0696 43.4256 84.2501 43.254C84.4307 43.0824 84.6446 42.9505 84.8917 42.8583C85.1389 42.7661 85.4104 42.72 85.7037 42.72C85.8099 42.72 85.9201 42.7302 86.0353 42.7494C86.1506 42.7686 86.2633 42.7994 86.3747 42.8416C86.4861 42.8839 86.5924 42.9402 86.6962 43.012C86.7986 43.0824 86.8908 43.1695 86.9715 43.2719L86.335 43.7919L86.3337 43.7957ZM88.8796 44.6973C88.8796 44.3963 88.9296 44.1248 89.0308 43.8802C89.1319 43.6356 89.2715 43.4282 89.4521 43.2566C89.6327 43.085 89.8465 42.953 90.0937 42.8608C90.3409 42.7686 90.6124 42.7225 90.9056 42.7225C91.1989 42.7225 91.4691 42.7686 91.7175 42.8608C91.9647 42.953 92.1786 43.085 92.3591 43.2566C92.5397 43.4282 92.6806 43.6356 92.7805 43.8802C92.8816 44.1248 92.9316 44.3963 92.9316 44.6973C92.9316 44.9982 92.8816 45.2697 92.7805 45.5143C92.6793 45.7589 92.5397 45.9664 92.3591 46.138C92.1786 46.3096 91.9647 46.4415 91.7175 46.5337C91.4704 46.6259 91.1989 46.672 90.9056 46.672C90.6124 46.672 90.3421 46.6259 90.0937 46.5337C89.8465 46.4415 89.6327 46.3096 89.4521 46.138C89.2715 45.9664 89.1306 45.7589 89.0308 45.5143C88.9296 45.271 88.8796 44.9982 88.8796 44.6973ZM89.739 44.6973C89.739 44.874 89.7659 45.0354 89.8209 45.1826C89.876 45.3299 89.9541 45.4567 90.0566 45.5643C90.159 45.6719 90.2819 45.7564 90.4254 45.8166C90.5688 45.8768 90.7289 45.9062 90.9056 45.9062C91.0823 45.9062 91.2424 45.8768 91.3859 45.8166C91.5293 45.7564 91.6522 45.6731 91.7547 45.5643C91.8571 45.4567 91.9352 45.3286 91.9903 45.1826C92.0454 45.0354 92.0723 44.874 92.0723 44.6973C92.0723 44.5206 92.0454 44.363 91.9903 44.2145C91.9352 44.0659 91.8571 43.9379 91.7547 43.8303C91.6522 43.7227 91.5293 43.6382 91.3859 43.578C91.2424 43.5178 91.0823 43.4884 90.9056 43.4884C90.7289 43.4884 90.5688 43.5178 90.4254 43.578C90.2819 43.6382 90.159 43.7214 90.0566 43.8303C89.9541 43.9379 89.8747 44.0659 89.8209 44.2145C89.7659 44.363 89.739 44.5244 89.739 44.6973ZM95.0959 42.8199H95.9232V45.8114H97.4561V46.5747H95.0959V42.8186V42.8199ZM99.5141 42.8199H100.341V45.8114H101.874V46.5747H99.5141V42.8186V42.8199ZM103.932 42.8199H106.483V43.5844H104.76V44.2849H106.389V45.0482H104.76V45.8127H106.579V46.576H103.932V42.8199ZM111.268 43.7957C111.186 43.6971 111.087 43.6203 110.968 43.5678C110.849 43.5152 110.712 43.4884 110.557 43.4884C110.402 43.4884 110.257 43.5178 110.124 43.578C109.991 43.6382 109.877 43.7214 109.78 43.8303C109.682 43.9379 109.607 44.0659 109.552 44.2145C109.497 44.363 109.47 44.5244 109.47 44.6973C109.47 44.8702 109.497 45.0354 109.552 45.1826C109.607 45.3299 109.681 45.4567 109.777 45.5643C109.873 45.6719 109.985 45.7564 110.114 45.8166C110.243 45.8768 110.382 45.9062 110.53 45.9062C110.7 45.9062 110.85 45.8704 110.981 45.7999C111.112 45.7295 111.219 45.6296 111.305 45.5028L111.995 46.0176C111.836 46.2405 111.634 46.4044 111.391 46.5107C111.147 46.617 110.895 46.6695 110.638 46.6695C110.344 46.6695 110.074 46.6234 109.826 46.5312C109.579 46.439 109.365 46.3071 109.184 46.1354C109.004 45.9638 108.863 45.7564 108.763 45.5118C108.662 45.2685 108.612 44.9957 108.612 44.6947C108.612 44.3938 108.662 44.1223 108.763 43.8777C108.864 43.6331 109.004 43.4256 109.184 43.254C109.365 43.0824 109.579 42.9505 109.826 42.8583C110.073 42.7661 110.344 42.72 110.638 42.72C110.744 42.72 110.854 42.7302 110.969 42.7494C111.085 42.7686 111.197 42.7994 111.309 42.8416C111.42 42.8839 111.526 42.9402 111.63 43.012C111.733 43.0824 111.825 43.1695 111.906 43.2719L111.269 43.7919L111.268 43.7957ZM114.742 43.5511H113.67V42.8186H116.641V43.5511H115.569V46.5747H114.742V43.5511ZM118.62 42.8186H119.447V46.5747H118.62V42.8186ZM121.77 42.8186H123.171C123.334 42.8186 123.498 42.8301 123.662 42.8532C123.826 42.8762 123.974 42.9223 124.105 42.9915C124.236 43.0606 124.342 43.1567 124.423 43.2809C124.503 43.4051 124.544 43.569 124.544 43.7739C124.544 43.9788 124.485 44.162 124.366 44.3016C124.247 44.4411 124.091 44.5411 123.896 44.6012V44.6115C124.02 44.6294 124.132 44.664 124.233 44.7152C124.334 44.7664 124.42 44.8317 124.493 44.9111C124.566 44.9905 124.621 45.084 124.659 45.1891C124.698 45.2953 124.718 45.408 124.718 45.5284C124.718 45.7269 124.676 45.8921 124.592 46.024C124.507 46.1559 124.397 46.2635 124.262 46.3455C124.128 46.4274 123.977 46.4851 123.809 46.5209C123.641 46.5568 123.474 46.5734 123.308 46.5734H121.77V42.8173V42.8186ZM122.598 44.3195H123.197C123.261 44.3195 123.324 44.3118 123.385 44.2977C123.447 44.2836 123.503 44.2606 123.552 44.2286C123.602 44.1966 123.641 44.1543 123.671 44.1018C123.7 44.0493 123.716 43.9853 123.716 43.911C123.716 43.8367 123.699 43.7688 123.666 43.7176C123.632 43.6664 123.589 43.6267 123.536 43.5985C123.484 43.5703 123.424 43.5498 123.356 43.537C123.289 43.5242 123.223 43.5178 123.16 43.5178H122.598V44.3195ZM122.598 45.8742H123.34C123.404 45.8742 123.468 45.8665 123.534 45.8524C123.599 45.8383 123.658 45.814 123.712 45.7781C123.766 45.7423 123.808 45.6962 123.841 45.6398C123.874 45.5835 123.891 45.5143 123.891 45.4324C123.891 45.344 123.869 45.2723 123.825 45.2172C123.78 45.1622 123.725 45.1212 123.658 45.093C123.59 45.0648 123.518 45.0456 123.44 45.0341C123.362 45.0239 123.29 45.0187 123.223 45.0187H122.596V45.8729L122.598 45.8742ZM126.81 42.8186H127.637V45.8102H129.17V46.5734H126.81V42.8173V42.8186ZM131.228 42.8186H133.779V43.5831H132.055V44.2836H133.684V45.0469H132.055V45.8114H133.875V46.5747H131.228V42.8186ZM137.964 43.7368C137.896 43.6523 137.805 43.5895 137.691 43.5485C137.577 43.5076 137.467 43.4871 137.365 43.4871C137.305 43.4871 137.243 43.4948 137.179 43.5089C137.115 43.5229 137.055 43.5447 136.998 43.5754C136.942 43.6049 136.896 43.6459 136.86 43.6945C136.824 43.7445 136.808 43.8047 136.808 43.8751C136.808 43.9878 136.85 44.0749 136.934 44.1351C137.019 44.1953 137.127 44.2465 137.256 44.2888C137.385 44.331 137.524 44.3733 137.672 44.4155C137.821 44.4578 137.959 44.518 138.088 44.5961C138.218 44.6742 138.324 44.778 138.41 44.9086C138.494 45.0392 138.537 45.2147 138.537 45.4337C138.537 45.6526 138.498 45.8243 138.42 45.9805C138.342 46.1367 138.237 46.2648 138.105 46.3672C137.972 46.4697 137.818 46.5465 137.644 46.5952C137.468 46.6451 137.284 46.6695 137.089 46.6695C136.845 46.6695 136.619 46.6323 136.411 46.558C136.202 46.4838 136.007 46.3634 135.827 46.1969L136.416 45.5502C136.5 45.6629 136.608 45.7513 136.737 45.8127C136.867 45.8742 137 45.9049 137.138 45.9049C137.205 45.9049 137.274 45.8972 137.342 45.8806C137.411 45.8652 137.472 45.8409 137.527 45.8089C137.582 45.7769 137.626 45.7359 137.661 45.6872C137.694 45.6373 137.71 45.5796 137.71 45.5118C137.71 45.3991 137.667 45.3094 137.581 45.2441C137.494 45.1788 137.385 45.1225 137.255 45.0776C137.124 45.0315 136.982 44.9854 136.831 44.9393C136.678 44.8932 136.537 44.8317 136.407 44.7536C136.276 44.6755 136.167 44.5731 136.08 44.4463C135.993 44.3195 135.95 44.1505 135.95 43.943C135.95 43.7355 135.989 43.5652 136.069 43.4128C136.148 43.2604 136.254 43.1336 136.388 43.0312C136.521 42.9287 136.673 42.8519 136.846 42.8007C137.019 42.7494 137.198 42.7238 137.381 42.7238C137.594 42.7238 137.799 42.7533 137.997 42.8135C138.196 42.8736 138.374 42.9748 138.533 43.1157L137.965 43.7368H137.964Z" fill="#1B1464"/>
</svg>
